<?xml version="1.0" encoding="UTF-8"?><svg id="Layer_2" xmlns="http://www.w3.org/2000/svg" viewBox="0 0 217.55 75.23"><defs><style>.cls-1{fill:#297bb7;}</style></defs><g id="Logo"><path class="cls-1" d="m179.94,5.4c17.76,0,32.22,14.45,32.22,32.22s-14.45,32.22-32.22,32.22H37.62c-17.76,0-32.22-14.45-32.22-32.22S19.85,5.4,37.62,5.4h142.32m0-5.4H37.62C16.84,0,0,16.84,0,37.62h0c0,20.77,16.84,37.62,37.62,37.62h142.32c20.77,0,37.62-16.84,37.62-37.62h0c0-20.77-16.84-37.62-37.62-37.62h0Z"/><polygon class="cls-1" points="35.1 50.57 35.1 23.59 41.81 23.59 55.93 45.35 70.02 23.59 76.63 23.59 76.63 50.57 71.12 50.57 71.12 31.11 58.65 50.57 53.08 50.57 40.6 31.11 40.6 50.57 35.1 50.57"/><path class="cls-1" d="m97.82,38.94v-15.35h5.5v15.39c0,7.75-3.34,12.18-14.03,12.18-3.1,0-6.47-.48-8.91-1.42l1.27-5.18c2.27.79,5.26,1.19,7.43,1.19,7.09,0,8.74-2.02,8.74-6.8"/><path class="cls-1" d="m140.89,37.08c0-3.08-.82-5.26-3.03-6.65l-15.65,14.87c1.55.2,3.34.32,5.4.32,10.08,0,13.28-2.49,13.28-8.54m-22.43,7.24l15.99-15.19c-1.79-.4-4.06-.59-6.84-.59-10.08,0-13.35,2.49-13.35,8.54,0,3.6,1.17,5.93,4.2,7.24m-7.77,7.4l3.54-3.36c-3.72-2.26-5.47-5.97-5.47-11.27,0-9.69,5.81-14,18.85-14,4.71,0,8.5.55,11.38,1.74l1.96-1.86h4.78l-3.75,3.56c3.03,2.29,4.47,5.78,4.47,10.56,0,9.69-5.81,14-18.85,14-4.06,0-7.43-.44-10.11-1.31l-2.03,1.94h-4.78Z"/><path class="cls-1" d="m167.74,51.04c-5.57,0-12.25-.91-16.37-2.02l.79-5.1c4.61,1.15,10.7,2.14,16.99,2.14,6.85,0,8.12-.83,8.12-3.05,0-2.37-1.2-2.73-3.65-3.01l-13.17-1.11c-6.64-.47-9.46-2.69-9.46-7.67,0-5.81,4.23-8.11,14.96-8.11,4.33,0,11.01.75,15.44,1.86l-.89,4.83c-3.99-.91-10.35-1.66-15.79-1.66-7.26,0-8.5.71-8.5,2.93,0,2.1,1.31,2.45,3.96,2.73l12.93,1.11c6.23.48,9.39,2.65,9.39,8.27s-3.3,7.87-14.76,7.87"/></g></svg>